<?xml version="1.0" encoding="UTF-8"?><svg id="Layer_2" xmlns="http://www.w3.org/2000/svg" viewBox="0 0 228 63.01"><defs><style>.cls-1{fill:#f29c1f;}.cls-2{fill:#e64c3c;}.cls-3{fill:#f3d55b;}.cls-4{letter-spacing:-.02em;}.cls-5{font-family:Rubik-Light, Rubik;font-size:42px;font-weight:300;}</style></defs><g id="Layer_1-2"><g><text class="cls-5" transform="translate(88.6 45.71)"><tspan x="0" y="0">Starte</tspan><tspan class="cls-4" x="115.62" y="0">r</tspan></text><path class="cls-3" d="M63,2.55l-.39,9.22-.36,8.57-.12,2.84c-.05,1.39-1.22,2.47-2.6,2.42-.62-.02-1.21-.27-1.65-.7l-1.84-1.82-4.96,4.95-7.21,7.22-7.03,7.03-3.15,3.14c-1.47,1.48-3.87,1.49-5.35,.02,0,0-.01-.01-.02-.02l-1.61-1.61c1.95,4.62,.98,9.96-2.47,13.61-.33,.35-.88,.37-1.23,.04-.08-.08-.15-.17-.19-.27-.57-1.13-1.3-2.17-2.17-3.08-2.51,5.89-6.58,7.59-8.84,8.1-.48,.11-.96-.2-1.07-.68-.04-.17-.02-.35,.04-.51,.58-1.45,.71-3.05,.37-4.57,0,0-4.32,5.44-10.1,6.56-.48,.09-.94-.23-1.02-.71-.04-.24,.02-.5,.17-.69,2.68-3.8,3.89-8.45,3.4-13.08-.51-7.04,6.18-7.57,6.18-7.57-.81-.87-1.85-1.5-3-1.8-.48-.13-.75-.62-.62-1.1,.05-.2,.17-.37,.34-.49,4.94-3.71,9.36-3.04,11.99-1.99l-.88-.88c-1.48-1.47-1.49-3.87-.02-5.35,0,0,.01-.01,.02-.02l3.14-3.15,7.03-7.02,7.22-7.22,4.95-4.96-1.82-1.84c-.96-1-.94-2.59,.06-3.55,.45-.43,1.04-.68,1.65-.7l2.84-.12,8.57-.36L60.46,0c1.33-.07,2.47,.95,2.54,2.29,0,.08,0,.17,0,.25h0Z"/><g><path class="cls-2" d="M62.25,20.34l-.12,2.84c-.05,1.39-1.22,2.47-2.6,2.42-.62-.02-1.21-.27-1.65-.7l-1.84-1.82L39.94,6.97l-1.82-1.84c-.96-1-.94-2.59,.06-3.55,.45-.43,1.04-.68,1.65-.7l2.84-.12,19.58,19.58Z"/><path class="cls-2" d="M63,2.55l-.39,9.22L51.23,.39,60.46,0c1.33-.07,2.47,.95,2.54,2.29,0,.08,0,.17,0,.25h0Z"/><path class="cls-2" d="M36.83,42.27l-3.15,3.14c-1.47,1.48-3.87,1.49-5.35,.02,0,0-.01-.01-.02-.02l-10.72-10.72c-1.48-1.47-1.49-3.87-.02-5.35,0,0,.01-.01,.02-.02l3.14-3.15,16.1,16.1Z"/><path class="cls-2" d="M27.78,19.15l7.22-7.23,16.11,16.09-7.22,7.23L27.78,19.15Z"/></g></g><path class="cls-1" d="M26.71,43.8c1.95,4.62,.98,9.96-2.47,13.61-.33,.35-.88,.37-1.23,.04-.08-.08-.15-.17-.19-.27-.57-1.13-1.3-2.17-2.17-3.08-2.51,5.89-6.58,7.59-8.84,8.1-.48,.11-.96-.2-1.07-.68-.04-.17-.02-.35,.04-.51,.58-1.45,.71-3.05,.37-4.57,0,0-4.32,5.44-10.1,6.56-.48,.09-.94-.23-1.02-.71-.04-.24,.02-.5,.17-.69,2.68-3.8,3.89-8.45,3.4-13.08-.51-7.04,6.18-7.57,6.18-7.57-.81-.87-1.85-1.5-3-1.8-.48-.13-.75-.62-.62-1.1,.05-.2,.17-.37,.34-.49,4.94-3.71,9.36-3.04,11.99-1.99l8.23,8.23Z"/></g></svg>