<?xml version="1.0" encoding="UTF-8"?><svg id="Layer_1" xmlns="http://www.w3.org/2000/svg" viewBox="0 0 123.89 60"><path d="M51.96,23.35V15.05l-7.19-4.15-6.85,3.96-4.74-2.74V4.15L25.98,0l-7.19,4.15v7.96l-4.74,2.74-6.85-3.96L0,15.05v8.31l6.89,3.98v5.46l-6.89,3.98v8.31l7.19,4.15,6.96-4.02,4.63,2.67v7.96l7.19,4.15,7.19-4.15v-7.96l4.63-2.67,6.96,4.02,7.19-4.15v-8.31l-6.89-3.98v-5.46l6.89-3.98Zm-.6-.34l-6.3,3.64v-7.27l6.3-3.64v7.27Zm-18.79-11.24l-6-3.46,6-3.46v6.93Zm-.3,.52l-6,3.46v-6.93l6,3.46ZM25.98,.69l6.3,3.64-6.3,3.64-6.3-3.64L25.98,.69Zm-6.6,4.15l6,3.46-6,3.46V4.84Zm6.3,3.98v6.93l-6-3.46,6-3.46Zm-11.89,14.19l-6.3,3.64v-7.27l6.3-3.64v7.27Zm-13.19,0v-7.27l6.3,3.64v7.27L.6,23.01Zm6.3,10.47v6.93l-6-3.46,6-3.46Zm0,14.89l-6.3-3.64v-7.27l6.3,3.64v7.27Zm.26-29.54L.9,15.22l6.3-3.64,6.26,3.61-6.3,3.64Zm.34,14.65l6,3.46-6,3.46v-6.93Zm0,14.89v-7.01l6.07,3.5-6.07,3.5Zm.37-7.48l5.93-3.42v6.85l-5.93-3.42Zm17.82,18.25l-6.3-3.64v-7.27l6.3,3.64v7.27Zm.3-7.79l-6.3-3.64,6.3-3.64,6.3,3.64-6.3,3.64Zm.3,7.79v-7.27l6.3-3.64v7.27l-6.3,3.64Zm18.19-10.77l-6.07-3.5,6.07-3.5v7.01Zm-6.3-4.06v-6.85l5.93,3.42-5.93,3.42Zm6.3-3.9l-6-3.46,6-3.46v6.93Zm0-7.62l-6.89,3.98v7.88l-4.7,2.71-6.89-3.98-6.89,3.98-4.7-2.71v-7.88l-6.89-3.98v-5.46l6.89-3.98V15.34l4.7-2.71,6.89,3.98,6.89-3.98,4.7,2.71v8.01l6.89,3.98v5.46Zm0-6.15l-6.3-3.64v-7.27l6.3,3.64v7.27Zm6.89,18.09l-6.3,3.64v-7.27l6.3-3.64v7.27Zm-.3-7.79l-6,3.46v-6.93l6,3.46Zm-6.26-18.11l-6.3-3.64,6.26-3.61,6.3,3.64-6.26,3.61Z" style="fill:#fff;"/><path d="M59.9,22.09l1.36-1.62c.94,.77,1.92,1.27,3.11,1.27,.94,0,1.5-.37,1.5-.98v-.03c0-.58-.36-.88-2.1-1.33-2.1-.54-3.46-1.12-3.46-3.19v-.03c0-1.89,1.52-3.14,3.65-3.14,1.52,0,2.81,.48,3.87,1.33l-1.19,1.73c-.92-.64-1.83-1.03-2.71-1.03s-1.34,.4-1.34,.91v.03c0,.69,.45,.91,2.25,1.37,2.11,.55,3.31,1.31,3.31,3.13v.03c0,2.07-1.58,3.23-3.83,3.23-1.58,0-3.17-.55-4.42-1.67Z" style="fill:#fff;"/><path d="M70.06,18.42v-.03c0-2.96,2.34-5.39,5.56-5.39s5.53,2.4,5.53,5.36v.03c0,2.96-2.34,5.39-5.56,5.39s-5.53-2.4-5.53-5.36Zm8.68,0v-.03c0-1.79-1.31-3.28-3.16-3.28s-3.13,1.46-3.13,3.25v.03c0,1.79,1.31,3.28,3.16,3.28s3.13-1.46,3.13-3.25Z" style="fill:#fff;"/><path d="M83.69,18.42v-.03c0-2.96,2.23-5.39,5.44-5.39,1.97,0,3.14,.66,4.11,1.61l-1.46,1.68c-.8-.73-1.62-1.18-2.67-1.18-1.76,0-3.02,1.46-3.02,3.25v.03c0,1.79,1.24,3.28,3.02,3.28,1.19,0,1.92-.48,2.74-1.22l1.46,1.47c-1.07,1.15-2.26,1.86-4.27,1.86-3.07,0-5.35-2.37-5.35-5.36Z" style="fill:#fff;"/><path d="M96.21,13.18h2.29v10.43h-2.29V13.18Z" style="fill:#fff;"/><path d="M106.25,13.11h2.11l4.47,10.5h-2.4l-.95-2.34h-4.41l-.95,2.34h-2.34l4.47-10.5Zm2.41,6.14l-1.38-3.38-1.39,3.38h2.77Z" style="fill:#fff;"/><path d="M116.01,13.18h2.29v8.34h5.33v2.09h-7.63V13.18Z" style="fill:#fff;"/><g><path d="M60.64,41.25h-.87v-.32h2.1v.32h-.87v2.23h-.36v-2.23Z" style="fill:#fff;"/><path d="M61.93,42.52c0-.57,.43-.98,1-.98s1,.41,1,.98-.42,.98-1,.98-1-.41-1-.98Zm1.65,0c0-.41-.28-.68-.65-.68s-.65,.27-.65,.68,.28,.68,.65,.68,.65-.27,.65-.68Z" style="fill:#fff;"/><path d="M66.35,41.56v1.66c0,.68-.35,.99-1,.99-.35,0-.71-.1-.92-.29l.17-.27c.18,.15,.46,.25,.74,.25,.45,0,.66-.21,.66-.65v-.15c-.17,.2-.42,.3-.69,.3-.56,0-.98-.38-.98-.93s.42-.93,.98-.93c.29,0,.55,.11,.71,.32v-.3h.33Zm-.34,.91c0-.37-.28-.62-.66-.62s-.67,.25-.67,.62,.28,.63,.67,.63,.66-.26,.66-.63Z" style="fill:#fff;"/><path d="M68.84,42.63h-1.56c.04,.34,.32,.56,.7,.56,.23,0,.41-.08,.56-.23l.19,.23c-.17,.2-.44,.31-.76,.31-.62,0-1.04-.41-1.04-.98s.41-.98,.97-.98,.95,.4,.95,.99c0,.03,0,.07,0,.11Zm-1.56-.25h1.24c-.04-.32-.28-.55-.62-.55s-.58,.23-.62,.55Z" style="fill:#fff;"/><path d="M70.5,43.37c-.11,.09-.27,.13-.42,.13-.39,0-.61-.21-.61-.6v-1.06h-.33v-.29h.33v-.42h.35v.42h.55v.29h-.55v1.04c0,.21,.11,.32,.3,.32,.1,0,.2-.03,.27-.09l.11,.25Z" style="fill:#fff;"/><path d="M72.84,42.37v1.11h-.35v-1.07c0-.38-.19-.56-.52-.56-.37,0-.61,.22-.61,.64v.99h-.35v-2.7h.35v1.04c.15-.19,.38-.29,.68-.29,.47,0,.8,.27,.8,.84Z" style="fill:#fff;"/><path d="M75.33,42.63h-1.56c.04,.34,.32,.56,.7,.56,.23,0,.41-.08,.56-.23l.19,.23c-.17,.2-.44,.31-.76,.31-.62,0-1.04-.41-1.04-.98s.41-.98,.97-.98,.95,.4,.95,.99c0,.03,0,.07,0,.11Zm-1.56-.25h1.24c-.04-.32-.28-.55-.62-.55s-.58,.23-.62,.55Z" style="fill:#fff;"/><path d="M76.95,41.54v.34s-.05,0-.08,0c-.37,0-.61,.23-.61,.65v.96h-.35v-1.93h.33v.32c.12-.23,.36-.34,.7-.34Z" style="fill:#fff;"/><path d="M78.95,41.39v.17h.56v.29h-.55v1.64h-.35v-1.64h-.33v-.29h.33v-.17c0-.37,.23-.62,.64-.62,.15,0,.29,.04,.39,.11l-.11,.27c-.07-.05-.17-.09-.27-.09-.21,0-.31,.12-.31,.34Z" style="fill:#fff;"/><path d="M79.73,42.52c0-.57,.43-.98,1-.98s1,.41,1,.98-.42,.98-1,.98-1-.41-1-.98Zm1.65,0c0-.41-.28-.68-.65-.68s-.65,.27-.65,.68,.28,.68,.65,.68,.65-.27,.65-.68Z" style="fill:#fff;"/><path d="M83.34,41.54v.34s-.05,0-.08,0c-.37,0-.61,.23-.61,.65v.96h-.35v-1.93h.33v.32c.12-.23,.36-.34,.7-.34Z" style="fill:#fff;"/><path d="M86.48,42.32v1.16h-.33v-.25c-.12,.17-.33,.28-.63,.28-.44,0-.71-.23-.71-.57,0-.31,.2-.56,.77-.56h.55v-.07c0-.29-.17-.47-.52-.47-.23,0-.46,.08-.61,.21l-.15-.26c.2-.16,.49-.25,.8-.25,.53,0,.83,.25,.83,.78Zm-.35,.57v-.27h-.54c-.35,0-.44,.13-.44,.3,0,.19,.16,.31,.43,.31s.47-.12,.56-.34Z" style="fill:#fff;"/><path d="M90.53,42.79c0,.44-.33,.69-.97,.69h-1.21v-2.54h1.14c.59,0,.91,.25,.91,.66,0,.28-.14,.47-.34,.57,.29,.08,.48,.29,.48,.63Zm-1.82-1.56v.81h.74c.37,0,.58-.14,.58-.41s-.21-.41-.58-.41h-.74Zm1.46,1.53c0-.29-.22-.43-.62-.43h-.84v.85h.84c.4,0,.62-.13,.62-.42Z" style="fill:#fff;"/><path d="M92.87,42.63h-1.56c.04,.34,.32,.56,.7,.56,.23,0,.41-.08,.56-.23l.19,.23c-.17,.2-.44,.31-.76,.31-.62,0-1.04-.41-1.04-.98s.41-.98,.97-.98,.95,.4,.95,.99c0,.03,0,.07,0,.11Zm-1.56-.25h1.24c-.04-.32-.28-.55-.62-.55s-.58,.23-.62,.55Z" style="fill:#fff;"/><path d="M94.53,43.37c-.11,.09-.27,.13-.42,.13-.39,0-.61-.21-.61-.6v-1.06h-.33v-.29h.33v-.42h.35v.42h.55v.29h-.55v1.04c0,.21,.11,.32,.3,.32,.1,0,.2-.03,.27-.09l.11,.25Z" style="fill:#fff;"/><path d="M96.08,43.37c-.11,.09-.27,.13-.42,.13-.39,0-.61-.21-.61-.6v-1.06h-.33v-.29h.33v-.42h.35v.42h.55v.29h-.55v1.04c0,.21,.11,.32,.3,.32,.1,0,.2-.03,.27-.09l.11,.25Z" style="fill:#fff;"/><path d="M98.26,42.63h-1.56c.04,.34,.32,.56,.7,.56,.23,0,.41-.08,.56-.23l.19,.23c-.17,.2-.44,.31-.76,.31-.62,0-1.04-.41-1.04-.98s.41-.98,.97-.98,.95,.4,.95,.99c0,.03,0,.07,0,.11Zm-1.56-.25h1.24c-.04-.32-.28-.55-.62-.55s-.58,.23-.62,.55Z" style="fill:#fff;"/><path d="M99.88,41.54v.34s-.05,0-.08,0c-.37,0-.61,.23-.61,.65v.96h-.35v-1.93h.33v.32c.12-.23,.36-.34,.7-.34Z" style="fill:#fff;"/><path d="M101.34,42.21c0-.75,.57-1.3,1.35-1.3,.39,0,.73,.13,.97,.4l-.24,.23c-.2-.21-.44-.3-.72-.3-.57,0-1,.41-1,.98s.43,.98,1,.98c.28,0,.52-.1,.72-.31l.24,.23c-.23,.26-.57,.4-.97,.4-.77,0-1.34-.55-1.34-1.3Z" style="fill:#fff;"/><path d="M103.96,42.52c0-.57,.43-.98,1-.98s1,.41,1,.98-.42,.98-1,.98-1-.41-1-.98Zm1.65,0c0-.41-.28-.68-.65-.68s-.65,.27-.65,.68,.28,.68,.65,.68,.65-.27,.65-.68Z" style="fill:#fff;"/><path d="M109.73,42.37v1.11h-.35v-1.07c0-.38-.18-.56-.5-.56-.35,0-.58,.22-.58,.64v.99h-.35v-1.07c0-.38-.18-.56-.5-.56-.35,0-.58,.22-.58,.64v.99h-.35v-1.93h.33v.29c.14-.2,.37-.31,.67-.31s.54,.12,.67,.36c.15-.22,.41-.36,.74-.36,.47,0,.79,.27,.79,.84Z" style="fill:#fff;"/><path d="M113.67,42.37v1.11h-.35v-1.07c0-.38-.18-.56-.5-.56-.35,0-.58,.22-.58,.64v.99h-.35v-1.07c0-.38-.18-.56-.5-.56-.35,0-.58,.22-.58,.64v.99h-.35v-1.93h.33v.29c.14-.2,.37-.31,.67-.31s.54,.12,.67,.36c.15-.22,.41-.36,.74-.36,.47,0,.79,.27,.79,.84Z" style="fill:#fff;"/><path d="M116.2,41.56v1.93h-.33v-.29c-.14,.2-.38,.31-.65,.31-.5,0-.83-.27-.83-.84v-1.11h.35v1.07c0,.38,.19,.57,.52,.57,.36,0,.6-.23,.6-.64v-1h.35Z" style="fill:#fff;"/><path d="M118.78,42.37v1.11h-.35v-1.07c0-.38-.19-.56-.52-.56-.37,0-.61,.22-.61,.64v.99h-.35v-1.93h.33v.29c.14-.2,.39-.31,.69-.31,.47,0,.8,.27,.8,.84Z" style="fill:#fff;"/><path d="M119.46,40.96c0-.13,.1-.23,.24-.23s.24,.1,.24,.22c0,.13-.1,.23-.24,.23s-.24-.1-.24-.23Zm.06,.6h.35v1.93h-.35v-1.93Z" style="fill:#fff;"/><path d="M121.71,43.37c-.11,.09-.27,.13-.42,.13-.39,0-.61-.21-.61-.6v-1.06h-.33v-.29h.33v-.42h.35v.42h.55v.29h-.55v1.04c0,.21,.11,.32,.3,.32,.1,0,.2-.03,.27-.09l.11,.25Z" style="fill:#fff;"/><path d="M123.89,41.56l-.93,2.12c-.17,.41-.39,.53-.69,.53-.19,0-.37-.06-.49-.18l.15-.26c.09,.09,.21,.14,.35,.14,.17,0,.27-.08,.37-.3l.06-.13-.85-1.92h.36l.67,1.54,.66-1.54h.34Z" style="fill:#fff;"/></g><g><path d="M59.9,27.01h4.84c1.19,0,2.13,.33,2.73,.92,.48,.48,.72,1.06,.72,1.77v.03c0,1.18-.63,1.83-1.37,2.25,1.21,.46,1.95,1.16,1.95,2.56v.03c0,1.91-1.55,2.86-3.9,2.86h-4.96v-10.43Zm4.35,4.21c1.01,0,1.65-.33,1.65-1.1v-.03c0-.69-.54-1.07-1.5-1.07h-2.26v2.2h2.11Zm.61,4.2c1.01,0,1.62-.36,1.62-1.13v-.03c0-.7-.52-1.13-1.7-1.13h-2.65v2.29h2.73Z" style="fill:#fff;"/><path d="M70.86,32.97v-5.96h2.29v5.9c0,1.7,.85,2.58,2.25,2.58s2.25-.85,2.25-2.5v-5.97h2.29v5.88c0,3.16-1.77,4.71-4.57,4.71s-4.51-1.56-4.51-4.63Z" style="fill:#fff;"/><path d="M82.06,27.01h4.77c1.32,0,2.35,.37,3.04,1.06,.58,.58,.89,1.4,.89,2.38v.03c0,1.68-.91,2.74-2.23,3.23l2.55,3.72h-2.68l-2.23-3.34h-1.8v3.34h-2.29v-10.43Zm4.62,5.06c1.12,0,1.76-.6,1.76-1.47v-.03c0-.98-.69-1.49-1.8-1.49h-2.28v2.99h2.32Z" style="fill:#fff;"/><path d="M93.2,27.01h7.86v2.04h-5.59v2.12h4.91v2.04h-4.91v2.19h5.66v2.04h-7.94v-10.43Z" style="fill:#fff;"/><path d="M107.13,26.93h2.11l4.47,10.5h-2.4l-.95-2.34h-4.41l-.95,2.34h-2.34l4.47-10.5Zm2.41,6.14l-1.38-3.38-1.39,3.38h2.77Z" style="fill:#fff;"/><path d="M114.56,32.97v-5.96h2.29v5.9c0,1.7,.85,2.58,2.25,2.58s2.25-.85,2.25-2.5v-5.97h2.29v5.88c0,3.16-1.77,4.71-4.57,4.71s-4.51-1.56-4.51-4.63Z" style="fill:#fff;"/></g><g><path d="M18.12,26.54l2.79,2.79c.33,.33,.87,.33,1.2,0,.33-.33,.33-.87,0-1.2l-2.79-2.79c-.33-.33-.87-.33-1.2,0-.33,.33-.33,.87,0,1.2Z" style="fill:#fff;"/><path d="M17.92,25.14c.23-.23,.23-.61,0-.85-.23-.23-.61-.23-.85,0s-.23,.61,0,.85c.23,.23,.61,.23,.85,0Z" style="fill:#fff;"/><path d="M23.71,26.52l-1.57-1.57c-.33-.33-.87-.33-1.2,0-.33,.33-.33,.87,0,1.2l1.57,1.57c.33,.33,.87,.33,1.2,0s.33-.87,0-1.2Z" style="fill:#fff;"/><path d="M20.74,24.76c.23-.23,.23-.61,0-.85-.23-.23-.61-.23-.85,0s-.23,.61,0,.85,.61,.23,.85,0Z" style="fill:#fff;"/><path d="M22.52,22.14c-.33-.33-.87-.33-1.2,0-.33,.33-.33,.87,0,1.2l2.79,2.79c.33,.33,.87,.33,1.2,0,.33-.33,.33-.87,0-1.2l-2.79-2.79Z" style="fill:#fff;"/><path d="M21.12,21.94c.23-.23,.23-.61,0-.85-.23-.23-.61-.23-.85,0-.23,.23-.23,.61,0,.85s.61,.23,.85,0Z" style="fill:#fff;"/><path d="M30.65,36.66l-2.79-2.79c-.33-.33-.87-.33-1.2,0-.33,.33-.33,.87,0,1.2l2.79,2.79c.33,.33,.87,.33,1.2,0,.33-.33,.33-.87,0-1.2Z" style="fill:#fff;"/><path d="M30.85,38.06c-.23,.23-.23,.61,0,.85,.23,.23,.61,.23,.85,0,.23-.23,.23-.61,0-.85-.23-.23-.61-.23-.85,0Z" style="fill:#fff;"/><path d="M28.26,32.27c-.33,.33-.33,.87,0,1.2l1.57,1.57c.33,.33,.87,.33,1.2,0,.33-.33,.33-.87,0-1.2l-1.57-1.57c-.33-.33-.87-.33-1.2,0Z" style="fill:#fff;"/><path d="M31.23,35.24c-.23,.23-.23,.61,0,.85s.61,.23,.85,0c.23-.23,.23-.61,0-.85s-.61-.23-.85,0Z" style="fill:#fff;"/><path d="M33.84,33.46l-2.79-2.79c-.33-.33-.87-.33-1.2,0s-.33,.87,0,1.2l2.79,2.79c.33,.33,.87,.33,1.2,0,.33-.33,.33-.87,0-1.2Z" style="fill:#fff;"/><path d="M34.04,34.86c-.23,.23-.23,.61,0,.85,.23,.23,.61,.23,.85,0,.23-.23,.23-.61,0-.85s-.61-.23-.85,0Z" style="fill:#fff;"/><path d="M24.1,33.87l-2.79,2.79c-.33,.33-.33,.87,0,1.2,.33,.33,.87,.33,1.2,0l2.79-2.79c.33-.33,.33-.87,0-1.2s-.87-.33-1.2,0Z" style="fill:#fff;"/><path d="M20.27,38.06c-.23,.23-.23,.61,0,.85,.23,.23,.61,.23,.85,0,.23-.23,.23-.61,0-.85-.23-.23-.61-.23-.85,0Z" style="fill:#fff;"/><path d="M22.5,32.27l-1.57,1.57c-.33,.33-.33,.87,0,1.2,.33,.33,.87,.33,1.2,0l1.57-1.57c.33-.33,.33-.87,0-1.2-.33-.33-.87-.33-1.2,0Z" style="fill:#fff;"/><path d="M20.74,36.09c.23-.23,.23-.61,0-.85-.23-.23-.61-.23-.85,0s-.23,.61,0,.85c.23,.23,.61,.23,.85,0Z" style="fill:#fff;"/><path d="M22.11,30.68c-.33-.33-.87-.33-1.2,0l-2.79,2.79c-.33,.33-.33,.87,0,1.2s.87,.33,1.2,0l2.79-2.79c.33-.33,.33-.87,0-1.2Z" style="fill:#fff;"/><path d="M17.07,34.86c-.23,.23-.23,.61,0,.85s.61,.23,.85,0c.23-.23,.23-.61,0-.85-.23-.23-.61-.23-.85,0Z" style="fill:#fff;"/><path d="M29.85,29.32c.33,.33,.87,.33,1.2,0l2.79-2.79c.33-.33,.33-.87,0-1.2-.33-.33-.87-.33-1.2,0l-2.79,2.79c-.33,.33-.33,.87,0,1.2Z" style="fill:#fff;"/><path d="M34.89,25.14c.23-.23,.23-.61,0-.85-.23-.23-.61-.23-.85,0-.23,.23-.23,.61,0,.85,.23,.23,.61,.23,.85,0Z" style="fill:#fff;"/><path d="M31.03,24.96c-.33-.33-.87-.33-1.2,0l-1.57,1.57c-.33,.33-.33,.87,0,1.2,.33,.33,.87,.33,1.2,0l1.57-1.57c.33-.33,.33-.87,0-1.2Z" style="fill:#fff;"/><path d="M31.23,23.91c-.23,.23-.23,.61,0,.85,.23,.23,.61,.23,.85,0s.23-.61,0-.85-.61-.23-.85,0Z" style="fill:#fff;"/><path d="M27.86,26.13l2.79-2.79c.33-.33,.33-.87,0-1.2-.33-.33-.87-.33-1.2,0l-2.79,2.79c-.33,.33-.33,.87,0,1.2,.33,.33,.87,.33,1.2,0Z" style="fill:#fff;"/><path d="M31.69,21.94c.23-.23,.23-.61,0-.85-.23-.23-.61-.23-.85,0-.23,.23-.23,.61,0,.85,.23,.23,.61,.23,.85,0Z" style="fill:#fff;"/></g></svg>