<svg width="166" height="144" viewBox="0 0 166 144" fill="none" xmlns="http://www.w3.org/2000/svg">
<path d="M65.4536 126C101.05 126 129.907 98.0178 129.907 63.5C129.907 28.9822 101.05 1 65.4536 1C29.8569 1 1 28.9822 1 63.5C1 98.0178 29.8569 126 65.4536 126Z" fill="#F1F3F9" stroke="#D6DCE8" stroke-width="2" stroke-miterlimit="10"/>
<path opacity="0.3" d="M121.584 29.1114V103.179C121.584 105.858 119.309 108.065 116.545 108.065H9.0373C6.27384 108.065 3.99805 105.858 3.99805 103.179V29.1114C3.99805 26.4317 6.27384 24.2249 9.0373 24.2249H116.545C119.309 24.2249 121.584 26.4317 121.584 29.1114Z" fill="#D6DCE8"/>
<path d="M124.582 26.2044V100.272C124.582 102.951 122.307 105.158 119.543 105.158H12.0353C9.27188 105.158 6.99609 102.951 6.99609 100.272V26.2044C6.99609 23.5247 9.27188 21.3179 12.0353 21.3179H119.543C122.307 21.3179 124.582 23.5247 124.582 26.2044Z" fill="white" stroke="#D6DCE8" stroke-width="2" stroke-miterlimit="10"/>
<rect x="13.165" y="61" width="106" height="21" rx="3" fill="#D6DCE8"/>
<path d="M124.582 26.2044V29.751H6.99609V26.2044C6.99609 23.5247 9.27188 21.3179 12.0353 21.3179H119.543C122.307 21.3179 124.582 23.5247 124.582 26.2044Z" fill="#F1F3F9" stroke="#D6DCE8" stroke-width="2" stroke-miterlimit="10"/>
<path d="M12.2787 27.0714C13.1315 27.0714 13.8229 26.4009 13.8229 25.5739C13.8229 24.7469 13.1315 24.0764 12.2787 24.0764C11.4258 24.0764 10.7344 24.7469 10.7344 25.5739C10.7344 26.4009 11.4258 27.0714 12.2787 27.0714Z" fill="#AAB2C5"/>
<path opacity="0.6" d="M17.0741 27.0714C17.927 27.0714 18.6184 26.4009 18.6184 25.5739C18.6184 24.7469 17.927 24.0764 17.0741 24.0764C16.2212 24.0764 15.5298 24.7469 15.5298 25.5739C15.5298 26.4009 16.2212 27.0714 17.0741 27.0714Z" fill="#AAB2C5"/>
<path opacity="0.4" d="M21.951 27.0714C22.8039 27.0714 23.4953 26.4009 23.4953 25.5739C23.4953 24.7469 22.8039 24.0764 21.951 24.0764C21.0981 24.0764 20.4067 24.7469 20.4067 25.5739C20.4067 26.4009 21.0981 27.0714 21.951 27.0714Z" fill="#AAB2C5"/>
<path d="M37.0492 39.6666H19.9474C18.8785 39.6666 17.9878 38.59 17.9878 37.7286C17.9878 36.652 18.8785 35.7906 19.9474 35.7906H37.0492C38.1181 35.7906 39.0088 36.8673 39.0088 37.7286C39.0088 38.8053 38.1181 39.6666 37.0492 39.6666Z" fill="#D6DCE8"/>
<path d="M32.4242 68.7985H19.9011C18.8575 68.7985 17.9878 67.7218 17.9878 66.8605C17.9878 65.7838 18.8575 64.9225 19.9011 64.9225H32.4242C33.4678 64.9225 34.3375 65.9991 34.3375 66.8605C34.1635 67.7218 33.2939 68.7985 32.4242 68.7985Z" fill="#AAB2C5"/>
<path d="M112.906 68.7985H88.9004C87.8034 68.7985 86.8892 67.7218 86.8892 66.8605C86.8892 65.7838 87.8034 64.9225 88.9004 64.9225H112.906C114.003 64.9225 114.917 65.9991 114.917 66.8605C114.734 67.7218 113.82 68.7985 112.906 68.7985Z" fill="#AAB2C5"/>
<path opacity="0.4" d="M115.776 67.4009L91.3959 106.262C89.7246 108.926 91.6394 112.388 94.7842 112.388L143.545 112.388C146.69 112.388 148.605 108.926 146.933 106.262L122.553 67.4009C120.985 64.9019 117.344 64.9019 115.776 67.4009Z" fill="#D6DCE8"/>
<path d="M99.1645 102.731L119.929 69.6328C121.889 66.5091 126.44 66.5091 128.4 69.6328L149.165 102.731C151.254 106.061 148.86 110.388 144.929 110.388L103.4 110.388C99.469 110.388 97.0754 106.061 99.1645 102.731Z" fill="#F1F3F9" stroke="#AAB2C5" stroke-width="2"/>
<path d="M124.294 79.7761C122.837 79.7761 121.68 81 121.761 82.4543L122.391 93.7143C122.448 94.7237 123.283 95.5132 124.294 95.5132C125.305 95.5132 126.14 94.7237 126.196 93.7143L126.826 82.4543C126.908 81 125.75 79.7761 124.294 79.7761ZM124.285 103.023C125.647 103.023 126.71 101.923 126.71 100.543C126.71 99.1628 125.647 98.0798 124.285 98.0798C122.94 98.0798 121.878 99.1628 121.878 100.543C121.878 101.923 122.94 103.023 124.285 103.023Z" fill="#AAB2C5"/>
<path d="M79.0188 68.7985H42.2089C41.1004 68.7985 40.1768 67.7218 40.1768 66.8605C40.1768 65.7838 41.1004 64.9225 42.2089 64.9225H79.0188C80.1273 64.9225 81.051 65.9991 81.051 66.8605C80.8662 67.7218 79.9425 68.7985 79.0188 68.7985Z" fill="#AAB2C5"/>
<path d="M49.803 77.5194H27.0464C25.9273 77.5194 24.9946 76.4427 24.9946 75.5814C24.9946 74.5048 25.9273 73.6434 27.0464 73.6434H49.803C50.9222 73.6434 51.8548 74.7201 51.8548 75.5814C51.6683 76.6581 50.7356 77.5194 49.803 77.5194Z" fill="#AAB2C5"/>
<path d="M70.8992 77.5194H58.5032C57.4249 77.5194 56.5264 76.4427 56.5264 75.5814C56.5264 74.5048 57.4249 73.6434 58.5032 73.6434H70.8992C71.9775 73.6434 72.8761 74.7201 72.8761 75.5814C72.6963 76.6581 71.7978 77.5194 70.8992 77.5194Z" fill="#AAB2C5"/>
<path d="M46.3024 89.2093H20.0369C18.9192 89.2093 17.9878 88.1327 17.9878 87.2714C17.9878 86.1947 18.9192 85.3334 20.0369 85.3334H46.3024C47.4201 85.3334 48.3515 86.41 48.3515 87.2714C48.3515 88.348 47.6064 89.2093 46.3024 89.2093Z" fill="#D6DCE8"/>
<path d="M65.0647 89.2093H54.9952C53.9194 89.2093 53.0229 88.1327 53.0229 87.2714C53.0229 86.1947 53.9194 85.3334 54.9952 85.3334H65.0647C66.1405 85.3334 67.037 86.41 67.037 87.2714C67.037 88.348 66.3198 89.2093 65.0647 89.2093Z" fill="#D6DCE8"/>
<path d="M31.1331 97.9303H20.0244C18.9135 97.9303 17.9878 96.8536 17.9878 95.9923C17.9878 94.9157 18.9135 94.0543 20.0244 94.0543H31.1331C32.2439 94.0543 33.1696 95.131 33.1696 95.9923C33.1696 97.069 32.4291 97.9303 31.1331 97.9303Z" fill="#D6DCE8"/>
<path d="M40.6764 97.9303H38.5075C37.5065 97.9303 36.6724 96.8536 36.6724 95.9923C36.6724 94.9157 37.5065 94.0543 38.5075 94.0543H40.6764C41.6774 94.0543 42.5115 95.131 42.5115 95.9923C42.5115 97.069 41.6774 97.9303 40.6764 97.9303Z" fill="#D6DCE8"/>
<path d="M24.3994 58.0775H19.751C18.7892 58.0775 17.9878 57.0008 17.9878 56.1395C17.9878 55.0629 18.7892 54.2015 19.751 54.2015H24.3994C25.3612 54.2015 26.1626 55.2782 26.1626 56.1395C26.1626 57.2162 25.3612 58.0775 24.3994 58.0775Z" fill="#D6DCE8"/>
<path d="M65.0199 58.0775H36.3562C35.2556 58.0775 34.3384 57.0008 34.3384 56.1395C34.3384 55.0629 35.2556 54.2015 36.3562 54.2015H65.0199C66.1205 54.2015 67.0377 55.2782 67.0377 56.1395C67.0377 57.2162 66.1205 58.0775 65.0199 58.0775Z" fill="#D6DCE8"/>
<path d="M46.3024 48.3876H20.0369C18.9192 48.3876 17.9878 47.3109 17.9878 46.4496C17.9878 45.3729 18.9192 44.5116 20.0369 44.5116H46.3024C47.4201 44.5116 48.3515 45.5883 48.3515 46.4496C48.3515 47.5262 47.6064 48.3876 46.3024 48.3876Z" fill="#D6DCE8"/>
<path d="M81.3376 48.3876H55.072C53.9544 48.3876 53.0229 47.3109 53.0229 46.4496C53.0229 45.3729 53.9544 44.5116 55.072 44.5116H81.3376C82.4552 44.5116 83.3866 45.5883 83.3866 46.4496C83.3866 47.5262 82.6415 48.3876 81.3376 48.3876Z" fill="#D6DCE8"/>
<path d="M100.1 48.3876H90.0308C88.9551 48.3876 88.0586 47.3109 88.0586 46.4496C88.0586 45.3729 88.9551 44.5116 90.0308 44.5116H100.1C101.176 44.5116 102.073 45.5883 102.073 46.4496C102.073 47.5262 101.355 48.3876 100.1 48.3876Z" fill="#D6DCE8"/>
</svg>
