<svg width="123" height="139" viewBox="0 0 123 139" fill="none" xmlns="http://www.w3.org/2000/svg">
<path d="M61.5705 138C94.6444 138 121.456 111.087 121.456 77.8878C121.456 44.6887 94.6444 17.7755 61.5705 17.7755C28.4967 17.7755 1.68506 44.6887 1.68506 77.8878C1.68506 111.087 28.4967 138 61.5705 138Z" fill="#F1F3F9" stroke="#D6DCE8" stroke-width="2" stroke-miterlimit="10"/>
<path d="M22.8044 122.512C21.998 122.512 21.2812 121.88 21.1916 121.068C21.102 120.165 21.7292 119.353 22.6252 119.263C23.5211 119.173 24.4171 119.082 25.3131 118.992C26.2091 118.902 27.0154 119.534 27.105 120.436C27.1946 121.338 26.5674 122.151 25.6715 122.241C24.7755 122.331 23.7899 122.421 22.894 122.512C22.894 122.512 22.894 122.512 22.8044 122.512Z" fill="#AAB2C5"/>
<path d="M35.4369 120.887C34.6305 120.887 33.9137 120.346 33.8241 119.534C33.6449 118.631 34.2721 117.819 35.1681 117.639C36.96 117.368 38.6623 117.007 40.4543 116.646C41.3503 116.465 42.1566 117.007 42.3358 117.909C42.515 118.812 41.9774 119.624 41.0815 119.804C39.2895 120.165 37.4976 120.526 35.616 120.797C35.5264 120.887 35.5264 120.887 35.4369 120.887ZM76.2035 118.09H76.1139C74.2324 117.909 72.3508 117.639 70.4693 117.278C69.5733 117.097 69.0358 116.195 69.215 115.292C69.3941 114.39 70.2901 113.848 71.1861 114.029C72.8884 114.39 74.5908 114.661 76.2931 114.841C77.1891 114.931 77.9059 115.653 77.8163 116.556C77.8163 117.458 77.0995 118.09 76.2035 118.09ZM50.3996 117.458C49.6828 117.458 49.0556 117.007 48.8764 116.285C48.6076 115.383 49.0556 114.48 49.9516 114.209C51.6539 113.668 53.3563 113.036 54.969 112.314C55.7754 111.953 56.761 112.314 57.1193 113.217C57.4777 114.029 57.1193 115.022 56.2234 115.383C54.6106 116.104 52.8187 116.736 50.9371 117.368C50.6684 117.458 50.4892 117.458 50.3996 117.458ZM86.0592 117.458C85.3424 117.458 84.6256 116.917 84.4465 116.195C84.2673 115.292 84.8048 114.39 85.7008 114.209C87.4032 113.848 89.0159 113.307 90.6287 112.675C91.435 112.314 92.4206 112.766 92.779 113.578C93.1374 114.39 92.6894 115.383 91.883 115.743C90.0911 116.465 88.2991 117.007 86.4176 117.458C86.328 117.458 86.2384 117.458 86.0592 117.458ZM61.5096 113.939C61.2408 113.939 60.972 113.848 60.7928 113.758C59.0905 112.946 57.4777 111.953 55.9546 110.87C55.2378 110.329 55.0586 109.336 55.5066 108.614C56.0442 107.892 57.0297 107.712 57.7465 108.163C59.1801 109.156 60.7032 110.058 62.2264 110.87C63.0328 111.322 63.3911 112.224 62.9432 113.036C62.764 113.668 62.1368 113.939 61.5096 113.939ZM99.8572 110.87C99.4092 110.87 98.8716 110.69 98.6028 110.239C98.0652 109.517 98.1548 108.524 98.8716 107.892C100.216 106.81 101.559 105.636 102.724 104.373C103.351 103.741 104.337 103.651 105.054 104.283C105.681 104.914 105.771 105.907 105.143 106.629C103.889 107.983 102.455 109.336 100.932 110.509C100.574 110.78 100.216 110.87 99.8572 110.87ZM64.1975 110.78C63.6599 110.78 63.2119 110.509 62.8536 110.058C62.316 109.336 62.4952 108.253 63.2119 107.802C64.6455 106.719 65.9895 105.636 67.1542 104.463C67.7814 103.832 68.8566 103.832 69.4837 104.463C70.1109 105.095 70.1109 106.178 69.4837 106.81C68.1398 108.073 66.7062 109.336 65.0935 110.509C64.8247 110.69 64.4663 110.78 64.1975 110.78ZM49.414 104.644C48.966 104.644 48.518 104.463 48.1596 104.102C46.9053 102.658 45.7405 101.124 44.6654 99.5902C44.1278 98.8683 44.3966 97.7854 45.1133 97.3342C45.8301 96.883 46.9053 97.0634 47.3533 97.7854C48.3388 99.2293 49.414 100.583 50.5788 101.937C51.2059 102.568 51.1163 103.651 50.4892 104.283C50.2204 104.463 49.7724 104.644 49.414 104.644ZM74.1428 99.2292C73.874 99.2292 73.6948 99.139 73.426 99.0488C72.6196 98.6878 72.2612 97.6951 72.7092 96.883C73.426 95.3489 74.0532 93.7245 74.5908 92.0099C74.8596 91.1075 75.7555 90.6563 76.6515 90.927C77.5475 91.1977 77.9955 92.1002 77.7267 93.0026C77.1891 94.8976 76.4723 96.7025 75.6659 98.4171C75.3076 98.9585 74.77 99.2292 74.1428 99.2292ZM109.623 99.0488C109.354 99.0488 109.086 98.9585 108.906 98.8683C108.1 98.4171 107.831 97.4244 108.19 96.6122C108.996 95.0781 109.713 93.4538 110.25 91.8294C110.519 91.0173 111.505 90.566 112.311 90.8368C113.118 91.1075 113.566 92.1002 113.297 92.9123C112.67 94.7172 111.863 96.522 111.057 98.1463C110.788 98.778 110.25 99.0488 109.623 99.0488ZM41.8878 91.288C41.1711 91.288 40.5439 90.8368 40.3647 90.1148C39.8271 88.2198 39.4687 86.3247 39.2895 84.4296C39.1999 83.5272 39.8271 82.715 40.7231 82.6248C41.619 82.5345 42.4254 83.1662 42.515 84.0686C42.6942 85.7832 43.0526 87.4978 43.5006 89.1222C43.7694 90.0246 43.2318 90.927 42.4254 91.1977C42.1566 91.288 42.067 91.288 41.8878 91.288ZM114.013 84.3394C113.924 84.3394 113.924 84.3394 113.834 84.3394C112.938 84.2491 112.311 83.437 112.401 82.5345C112.58 80.8199 112.67 79.0151 112.67 77.3005C112.67 76.3981 113.386 75.6762 114.282 75.6762C115.178 75.6762 115.895 76.3981 115.895 77.3005C115.895 79.1956 115.805 81.0907 115.626 82.9857C115.537 83.7077 114.82 84.3394 114.013 84.3394ZM77.5475 84.1589C76.6515 84.1589 75.9347 83.5272 75.9347 82.6248V82.354C75.9347 80.6395 75.7555 79.0151 75.4867 77.481C75.3076 76.5786 75.8451 75.7664 76.7411 75.5859C77.6371 75.4054 78.4434 75.9469 78.6226 76.8493C78.981 78.5639 79.1602 80.459 79.1602 82.4443C79.1602 83.3467 78.4435 84.1589 77.5475 84.1589ZM42.1566 76.1274C41.9774 76.1274 41.7086 76.0371 41.5295 75.9469C40.7231 75.5859 40.3647 74.5933 40.7231 73.7811C41.5295 71.9763 42.6046 70.2617 43.9486 68.8178C44.5758 68.1861 45.5613 68.0959 46.2781 68.7276C46.9053 69.3592 46.9949 70.3519 46.3677 71.0738C45.2029 72.3372 44.307 73.6908 43.6798 75.225C43.411 75.7664 42.7838 76.1274 42.1566 76.1274ZM72.7092 69.9909C72.2612 69.9909 71.8133 69.8105 71.5445 69.4495C70.4693 68.2763 69.1254 67.2837 67.6022 66.5618C66.7958 66.2008 66.4374 65.2081 66.8854 64.396C67.2438 63.5838 68.2294 63.2228 69.0358 63.674C70.8277 64.5764 72.4404 65.7496 73.874 67.2837C74.5012 67.9154 74.5012 68.9983 73.7844 69.63C73.5156 69.9007 73.0676 69.9909 72.7092 69.9909ZM113.386 68.908C112.58 68.908 111.953 68.3666 111.774 67.5544C111.415 65.8398 111.057 64.035 110.519 62.4106C110.25 61.5082 110.788 60.6058 111.594 60.3351C112.49 60.0644 113.386 60.6058 113.655 61.418C114.193 63.2228 114.641 65.0276 114.999 66.9227C115.178 67.8251 114.551 68.6373 113.655 68.8178C113.566 68.908 113.476 68.908 113.386 68.908ZM53.3563 66.2008C52.6395 66.2008 52.0123 65.7496 51.8331 65.1179C51.5643 64.3057 52.0123 63.3131 52.8187 63.0423C54.7002 62.4106 56.5818 61.9594 58.5529 61.7789C59.4489 61.6887 60.2552 62.4106 60.3448 63.3131C60.4344 64.2155 59.7177 65.0276 58.8217 65.1179C57.1193 65.2984 55.5066 65.5691 53.8939 66.2008C53.7147 66.1105 53.5355 66.2008 53.3563 66.2008ZM108.548 54.2889C107.921 54.2889 107.383 53.9279 107.115 53.3865C106.308 51.7621 105.412 50.228 104.427 48.7841C103.979 47.972 104.158 46.9793 104.964 46.5281C105.771 46.0769 106.756 46.2574 107.204 47.0695C108.19 48.6037 109.086 50.3182 109.982 52.0328C110.34 52.845 110.071 53.8377 109.265 54.1986C108.996 54.2889 108.727 54.2889 108.548 54.2889Z" fill="#AAB2C5"/>
<path d="M99.5882 41.4746C99.1402 41.4746 98.7818 41.2941 98.4234 41.0234C97.7962 40.3917 97.1691 39.76 96.5419 39.2186C95.8251 38.5869 95.8251 37.5942 96.3627 36.8723C96.9899 36.1504 97.9754 36.1503 98.6922 36.6918C99.409 37.3235 100.126 37.9552 100.753 38.6771C101.38 39.3088 101.38 40.3917 100.753 41.0234C100.395 41.2941 99.9466 41.4746 99.5882 41.4746Z" fill="#AAB2C5"/>
<path d="M81.131 32.4504C75.7552 36.5113 73.8736 39.4893 62.8532 28.2091C60.7029 26.0433 61.2404 22.7043 68.4082 21.8019C74.68 20.9897 79.339 21.8019 84.0877 23.6067C84.0877 23.6067 84.0877 23.6067 84.1773 23.5165C81.7582 17.1996 81.3102 10.7022 83.1917 4.11453C83.9085 1.76825 86.3276 -0.0365862 88.1196 1.67801C99.8568 12.7777 97.0793 15.485 92.689 20.719C93.2266 20.358 93.6746 20.0873 94.1226 19.8166C96.8105 18.1922 102.365 17.6508 103.082 25.4116C103.172 26.675 103.172 28.0286 102.634 29.292C101.559 31.7285 98.8712 31.8187 96.5417 31.7285C94.2122 31.6382 92.4202 31.0066 90.4491 30.1041C90.6283 30.4651 90.6283 30.6456 90.7179 30.8261C91.9722 33.804 93.0474 39.399 90.6283 41.6551C89.2843 42.8282 87.4028 42.8282 85.7004 42.738C84.2669 42.6477 82.8333 42.377 81.579 41.6551C79.6974 40.5722 78.9807 38.6771 79.2495 36.6015C79.6078 34.7065 80.5038 33.5333 81.131 32.4504Z" fill="#D6DCE8" stroke="#AAB2C5" stroke-width="2" stroke-miterlimit="10"/>
</svg>
