<svg width="131" height="132" viewBox="0 0 131 132" fill="none" xmlns="http://www.w3.org/2000/svg">
<path d="M101.187 113.265H23.1478C22.9169 113.265 22.7373 113.085 22.7373 112.854V98.5035C22.7373 96.6808 24.2252 95.1918 26.0467 95.1918H98.2879C100.109 95.1918 101.597 96.6808 101.597 98.5035V112.854C101.623 113.085 101.418 113.265 101.187 113.265Z" fill="#F1F3F9" stroke="#D6DCE8" stroke-width="2" stroke-miterlimit="10"/>
<path opacity="0.3" d="M101.186 105.743H23.2502C23.0197 105.743 22.8403 105.638 22.8403 105.504V97.1461C22.8403 96.0846 24.3263 95.2174 26.1453 95.2174H98.2906C100.11 95.2174 101.595 96.0846 101.595 97.1461V105.504C101.621 105.638 101.416 105.743 101.186 105.743Z" fill="#D6DCE8" stroke="#D6DCE8" stroke-width="2" stroke-miterlimit="10"/>
<path d="M103.547 102.149H20.7879C20.2235 102.149 19.7617 101.687 19.7617 101.122V9.13812C19.7617 4.64547 23.4046 1 27.894 1H96.4668C100.956 1 104.599 4.64547 104.599 9.13812V101.122C104.599 101.687 104.137 102.149 103.547 102.149Z" fill="white" stroke="#D6DCE8" stroke-width="2" stroke-miterlimit="10"/>
<path d="M98.7957 11.7014V65.0051C98.7957 66.3803 97.7418 67.4805 96.4244 67.4805H27.5769C26.8391 67.4805 26.2068 67.123 25.7589 66.6004C25.4164 66.1878 25.2056 65.6102 25.2056 65.0326V11.7014C25.2056 10.3261 26.2595 9.22595 27.5769 9.22595H96.4507C97.0567 9.22595 97.61 9.44599 98.0316 9.85856C98.5059 10.2986 98.7957 10.9587 98.7957 11.7014Z" fill="#F1F3F9"/>
<path opacity="0.4" d="M98.7955 11.6606V65.0033C98.7955 66.3795 97.7414 67.4805 96.4237 67.4805H27.5625C26.8246 67.4805 26.1921 67.1227 25.7441 66.5997L98.0049 9.81641C98.5057 10.2568 98.7955 10.9174 98.7955 11.6606Z" fill="#D6DCE8"/>
<path d="M89.5409 13.6051H34.4621C31.6401 13.6051 29.3569 15.8899 29.3569 18.7139V58.0182C29.3569 60.8422 31.6401 63.127 34.4621 63.127H89.5152C92.3372 63.127 94.6203 60.8422 94.6203 58.0182V18.6882C94.6203 15.8899 92.3372 13.6051 89.5409 13.6051Z" fill="#F1F3F9" stroke="#D6DCE8" stroke-width="2" stroke-miterlimit="10"/>
<path d="M76.3183 27.0576L70.7783 32.6016" stroke="#6D7381" stroke-width="2.5" stroke-miterlimit="10" stroke-linecap="round" stroke-linejoin="round"/>
<path d="M70.7783 27.0576L76.3183 32.6016" stroke="#6D7381" stroke-width="2.5" stroke-miterlimit="10" stroke-linecap="round" stroke-linejoin="round"/>
<path d="M54.6178 27.0576L49.0508 32.6016" stroke="#6D7381" stroke-width="2.5" stroke-miterlimit="10" stroke-linecap="round" stroke-linejoin="round"/>
<path d="M49.0508 27.0576L54.6178 32.6016" stroke="#6D7381" stroke-width="2.5" stroke-miterlimit="10" stroke-linecap="round" stroke-linejoin="round"/>
<path d="M58.645 38.9028L60.6718 40.9582H64.6985L66.6172 38.9028" stroke="#6D7381" stroke-width="2.5" stroke-miterlimit="10" stroke-linecap="round" stroke-linejoin="round"/>
<path d="M54.7798 48.3409H69.1027L72.9672 51.4239" stroke="#6D7381" stroke-width="2.5" stroke-miterlimit="10" stroke-linecap="round" stroke-linejoin="round"/>
<path opacity="0.3" d="M94.7294 16.6915C93.9504 14.88 92.1466 13.6051 90.0564 13.6051H34.9379C32.1139 13.6051 29.8291 15.8899 29.8291 18.7139V18.9706H30.6616C31.5737 17.5786 33.1474 16.6601 34.9379 16.6601H94.1639C94.355 16.6601 94.5436 16.6708 94.7294 16.6915Z" fill="#AAB2C5"/>
<path d="M33.2683 85.7957H33.2682L33.2685 85.8065C33.2878 86.6972 32.5488 87.4522 31.6134 87.4522H28.3297C27.4044 87.4522 26.6748 86.7047 26.6748 85.7957V82.5096C26.6748 81.5827 27.4222 80.8531 28.3297 80.8531H31.6134C32.5388 80.8531 33.2683 81.6006 33.2683 82.5096V85.7957Z" fill="#F1F3F9" stroke="#D6DCE8"/>
<path d="M86.513 83.6393H93.6447C94.1835 83.6393 94.6196 83.2029 94.6196 82.6638V80.0965C94.6196 79.5574 94.1835 79.121 93.6447 79.121H86.513C85.9742 79.121 85.5381 79.5574 85.5381 80.0965C85.5381 80.2241 85.4347 80.3276 85.3071 80.3276H63.1166C62.6548 80.3276 62.27 80.7126 62.27 81.1747V81.5598C62.27 82.0219 62.6548 82.407 63.1166 82.407H85.2814C85.4232 82.407 85.5381 82.522 85.5381 82.6638C85.5381 83.2029 85.9742 83.6393 86.513 83.6393Z" fill="#D6DCE8" stroke="#AAB2C5" stroke-width="2" stroke-miterlimit="10"/>
<path opacity="0.2" d="M25.1048 1.68005C22.234 2.93766 20.2271 5.8047 20.2271 9.13813V101.122C20.2271 101.687 20.6892 102.149 21.2539 102.149H25.1048V1.68005Z" fill="#D6DCE8"/>
<path d="M122.3 126.315C124.055 126.315 125.477 124.871 125.477 123.089C125.477 121.307 124.055 119.863 122.3 119.863C120.545 119.863 119.122 121.307 119.122 123.089C119.122 124.871 120.545 126.315 122.3 126.315Z" fill="#D6DCE8" stroke="#AAB2C5" stroke-width="2" stroke-miterlimit="10"/>
<path d="M13.3141 119.863H8.75978C7.6614 119.863 6.771 120.753 6.771 121.852C6.771 122.95 7.6614 123.84 8.75978 123.84H13.3141C14.4125 123.84 15.3029 122.95 15.3029 121.852C15.3029 120.753 14.4125 119.863 13.3141 119.863Z" fill="#D6DCE8" stroke="#AAB2C5" stroke-width="2" stroke-miterlimit="10"/>
<path d="M20.8454 119.863H18.9028C17.8045 119.863 16.9141 120.753 16.9141 121.852C16.9141 122.95 17.8045 123.84 18.9028 123.84H20.8454C21.9437 123.84 22.8341 122.95 22.8341 121.852C22.8341 120.753 21.9437 119.863 20.8454 119.863Z" fill="#D6DCE8" stroke="#AAB2C5" stroke-width="2" stroke-miterlimit="10"/>
<path d="M93.2064 123.844L97.7607 123.844C98.8591 123.844 99.7495 122.954 99.7495 121.855C99.7495 120.757 98.8591 119.867 97.7607 119.867L93.2064 119.867C92.108 119.867 91.2176 120.757 91.2176 121.855C91.2176 122.954 92.108 123.844 93.2064 123.844Z" fill="#D6DCE8" stroke="#AAB2C5" stroke-width="2" stroke-miterlimit="10"/>
<path d="M85.6522 123.844L87.5947 123.844C88.6931 123.844 89.5835 122.954 89.5835 121.855C89.5835 120.757 88.6931 119.867 87.5947 119.867L85.6522 119.867C84.5538 119.867 83.6634 120.757 83.6634 121.855C83.6634 122.954 84.5538 123.844 85.6522 123.844Z" fill="#D6DCE8" stroke="#AAB2C5" stroke-width="2" stroke-miterlimit="10"/>
<path d="M79.4802 119.863H26.8687C25.7703 119.863 24.8799 120.753 24.8799 121.852C24.8799 122.95 25.7703 123.84 26.8687 123.84H79.4802C80.5785 123.84 81.4689 122.95 81.4689 121.852C81.4689 120.753 80.5785 119.863 79.4802 119.863Z" fill="#D6DCE8" stroke="#AAB2C5" stroke-width="2" stroke-miterlimit="10"/>
<path d="M102.494 131H3.68082C2.50551 131 1.54785 130.028 1.54785 128.834V126.801V124.768C1.54785 123.575 2.50551 122.603 3.68082 122.603H102.538C103.713 122.603 104.671 123.575 104.671 124.768V128.834C104.627 130.028 103.669 131 102.494 131Z" fill="white" stroke="#D6DCE8" stroke-width="2" stroke-miterlimit="10"/>
<path d="M126.915 131H113.551C112.376 131 111.418 130.028 111.418 128.834V126.801V124.768C111.418 123.575 112.376 122.603 113.551 122.603H126.915C128.09 122.603 129.048 123.575 129.048 124.768V128.834C129.048 130.028 128.09 131 126.915 131Z" fill="white" stroke="#D6DCE8" stroke-width="2" stroke-miterlimit="10"/>
<path d="M104.627 126.801H1.54785" stroke="#D6DCE8" stroke-width="2" stroke-miterlimit="10"/>
<path d="M129.048 126.801H111.461" stroke="#D6DCE8" stroke-width="2" stroke-miterlimit="10"/>
</svg>
