<?xml version="1.0" standalone="no"?>
<!DOCTYPE svg PUBLIC "-//W3C//DTD SVG 20010904//EN"
 "http://www.w3.org/TR/2001/REC-SVG-20010904/DTD/svg10.dtd">
<svg version="1.0" xmlns="http://www.w3.org/2000/svg"
 width="700.000000pt" height="700.000000pt" viewBox="0 0 700.000000 700.000000"
 preserveAspectRatio="xMidYMid meet">
<metadata>
Created by potrace 1.14, written by Peter Selinger 2001-2017
</metadata>
<g transform="translate(0.000000,700.000000) scale(0.100000,-0.100000)"
fill="#000000" stroke="none">
<path d="M6578 6885 c-2 -2 -93 -6 -203 -10 -110 -4 -220 -8 -245 -10 -25 -2
-128 -6 -230 -10 -102 -4 -207 -9 -235 -11 -27 -2 -113 -6 -190 -9 -77 -3
-192 -8 -255 -11 -63 -3 -167 -7 -230 -9 -728 -26 -688 -21 -771 -105 -65 -65
-88 -122 -83 -208 5 -78 33 -126 136 -233 51 -53 102 -105 112 -117 l19 -22
-1213 -1211 c-666 -666 -1225 -1232 -1241 -1258 -81 -127 -81 -310 0 -432 17
-24 56 -70 87 -101 l58 -57 -78 25 c-373 118 -764 52 -1123 -188 -102 -70
-128 -102 -119 -152 8 -44 30 -62 110 -91 37 -13 89 -36 116 -51 57 -31 149
-104 149 -119 1 -6 -29 -16 -66 -23 -213 -40 -419 -188 -506 -362 -61 -122
-79 -215 -75 -385 8 -305 1 -500 -20 -615 -53 -286 -145 -522 -300 -769 -66
-105 -75 -138 -52 -180 26 -49 72 -54 185 -24 301 82 591 264 873 549 67 68
124 124 126 124 5 0 7 -22 11 -145 4 -125 -6 -197 -43 -305 -14 -40 -16 -64
-10 -87 10 -39 51 -73 89 -73 38 0 229 63 292 97 268 142 481 366 632 668 l52
105 43 -50 c63 -74 106 -136 150 -215 54 -98 72 -115 120 -115 48 0 78 24 153
122 118 155 198 315 246 498 69 257 54 568 -38 811 l-21 53 98 -97 c112 -113
165 -152 236 -172 71 -20 114 -23 186 -13 135 18 75 -37 1403 1291 670 669
1220 1217 1222 1217 2 0 54 -49 115 -110 62 -60 131 -119 155 -130 142 -69
318 6 370 158 13 37 20 127 30 417 8 227 15 394 20 490 2 50 7 158 10 240 4
83 8 173 10 200 2 28 6 131 10 230 3 99 8 205 10 235 7 93 19 442 18 501 -3
135 -109 245 -247 253 -30 2 -56 2 -58 1z"/>
</g>
</svg>
